<?xml version="1.0" standalone="no"?><!DOCTYPE svg PUBLIC "-//W3C//DTD SVG 1.1//EN" "http://www.w3.org/Graphics/SVG/1.1/DTD/svg11.dtd"><svg t="1590220015535" class="icon" viewBox="0 0 1024 1024" version="1.1" xmlns="http://www.w3.org/2000/svg" p-id="2274" xmlns:xlink="http://www.w3.org/1999/xlink" width="200" height="200"><defs><style type="text/css"></style></defs><path d="M976.2 548.1h-928c-19.9 0-36-16.1-36-36s16.1-36 36-36h928c19.9 0 36 16.1 36 36s-16.2 36-36 36z" p-id="2275" fill="#bfbfbf"></path><path d="M333.8 833.8c-9.2 0-18.4-3.5-25.5-10.5L22.7 537.5c-14.1-14.1-14.1-36.9 0-50.9 14.1-14.1 36.9-14.1 50.9 0l285.7 285.7c14.1 14.1 14.1 36.9 0 50.9-7 7-16.3 10.6-25.5 10.6z" p-id="2276" fill="#bfbfbf"></path><path d="M48.2 548.1c-9.2 0-18.4-3.5-25.5-10.5-14.1-14.1-14.1-36.9 0-50.9L308.4 201c14.1-14.1 36.9-14.1 50.9 0 14.1 14.1 14.1 36.9 0 50.9L73.6 537.5c-7 7.1-16.2 10.6-25.4 10.6z" p-id="2277" fill="#bfbfbf"></path></svg>