<?xml version="1.0" standalone="no"?><!DOCTYPE svg PUBLIC "-//W3C//DTD SVG 1.1//EN" "http://www.w3.org/Graphics/SVG/1.1/DTD/svg11.dtd"><svg t="1589781520651" class="icon" viewBox="0 0 1024 1024" version="1.1" xmlns="http://www.w3.org/2000/svg" p-id="4930" xmlns:xlink="http://www.w3.org/1999/xlink" width="200" height="200"><defs><style type="text/css"></style></defs><path d="M386.103 117.45h252.256v30.27H386.103v-30.27z" fill="#e6e6e6" p-id="4931"></path><path d="M953.174 147.72v-30.27H763.477v30.27h159.418v146.31H100.557V147.72h159.417v-30.27H70.278v30.27h0.009v778.967h-0.008v30.27h882.894v-30.27h-0.008V147.72h0.009zM100.557 926.687V324.3h822.337v602.387H100.557z" fill="#e6e6e6" p-id="4932"></path><path d="M307.398 64.981h30.27V220.37h-30.27V64.981zM686.79 64.981h30.271V220.37h-30.27V64.981zM307.182 538.474v33.992c23.845-14.312 43.525-29.212 59.04-44.727v246.893h35.78v-307.72h-21.468c-19.092 27.45-43.552 51.295-73.352 71.562zM694.517 641.346c-2.991-11.322-7.771-22.644-14.312-33.993-6.57-11.321-16.996-20.268-31.31-26.837-14.311-6.542-29.24-10.12-44.726-10.734-15.514-0.587-32.203 3.3-50.094 11.629 5.954-19.065 11.908-44.727 17.89-76.93h114.502v-32.204H545.13c-20.295 95.436-31.617 146.705-33.993 153.86l30.415 3.579c9.531-13.112 21.748-21.469 36.676-25.047 14.9-3.579 28.318-3.579 40.254 0 11.91 3.577 21.749 10.733 29.52 21.468 7.744 10.734 11.91 23.872 12.524 39.359 0.586 15.515-1.789 29.52-7.156 42.043s-14.313 22.672-26.837 30.415c-12.524 7.772-28.932 9.84-49.2 6.262-20.294-3.578-34.607-21.468-42.938-53.672l-32.203 8.945c5.953 28.626 16.996 48.92 33.098 60.829 16.101 11.936 33.098 18.505 50.989 19.679 17.89 1.202 33.685-0.895 47.41-6.262 13.697-5.367 25.326-12.523 34.887-21.468 9.532-8.946 16.69-20.267 21.469-33.993 4.752-13.698 7.436-27.116 8.05-40.254 0.588-13.108-0.614-25.325-3.578-36.674z" fill="#e6e6e6" p-id="4933"></path></svg>