<?xml version="1.0" standalone="no"?><!DOCTYPE svg PUBLIC "-//W3C//DTD SVG 1.1//EN" "http://www.w3.org/Graphics/SVG/1.1/DTD/svg11.dtd"><svg t="1590221624682" class="icon" viewBox="0 0 1024 1024" version="1.1" xmlns="http://www.w3.org/2000/svg" p-id="7828" xmlns:xlink="http://www.w3.org/1999/xlink" width="200" height="200"><defs><style type="text/css"></style></defs><path d="M512 1004.864a490.624 490.624 0 0 1-129.408-17.6 492.8 492.8 0 1 1 605.376-602.24 484.928 484.928 0 0 1 5.44 231.168 591.36 591.36 0 0 0-15.936 128.576v159.104a74.24 74.24 0 0 1-74.176 74.176h-161.088a591.936 591.936 0 0 0-126.4 15.424A480 480 0 0 1 512 1004.864z m0-896a403.2 403.2 0 0 0-399.616 459.392 405.888 405.888 0 0 0 293.568 332.8 395.904 395.904 0 0 0 190.464 5.12 678.784 678.784 0 0 1 145.6-17.536h145.6V744.96a675.52 675.52 0 0 1 18.112-147.84 397.568 397.568 0 0 0-4.544-188.928 405.376 405.376 0 0 0-331.2-295.104 412.416 412.416 0 0 0-57.792-4.224z m437.44 497.664z" p-id="7829" fill="#cdcdcd"></path><path d="M677.504 471.68H320.192a44.8 44.8 0 1 1 0-89.6h357.312a44.8 44.8 0 1 1 0 89.6z" p-id="7830" fill="#cdcdcd"></path><path d="M641.792 662.016h-228.48a44.8 44.8 0 1 1 0-89.6h228.48a44.8 44.8 0 1 1 0 89.6z" p-id="7831" fill="#cdcdcd"></path></svg>