<?xml version="1.0" standalone="no"?><!DOCTYPE svg PUBLIC "-//W3C//DTD SVG 1.1//EN" "http://www.w3.org/Graphics/SVG/1.1/DTD/svg11.dtd"><svg t="1589700786262" class="icon" viewBox="0 0 1024 1024" version="1.1" xmlns="http://www.w3.org/2000/svg" p-id="2704" xmlns:xlink="http://www.w3.org/1999/xlink" width="200" height="200"><defs><style type="text/css"></style></defs><path d="M1024 931.2c0 51.2-41.6 92.8-92.8 92.8H92.8C41.6 1024 0 982.4 0 931.2c0-51.2 41.6-92.8 92.8-92.8h838.4c51.2 0 92.8 41.6 92.8 92.8zM1024 512c0 51.2-41.6 92.8-92.8 92.8H92.8C41.6 604.8 0 563.2 0 512c0-51.2 41.6-92.8 92.8-92.8h838.4c51.2 0 92.8 41.6 92.8 92.8zM1024 92.8c0 51.2-41.6 92.8-92.8 92.8H92.8C41.6 185.6 0 144 0 92.8 0 41.6 41.6 0 92.8 0h838.4C982.4 0 1024 41.6 1024 92.8z" p-id="2705" fill="#e6e6e6"></path></svg>