<?xml version="1.0" standalone="no"?><!DOCTYPE svg PUBLIC "-//W3C//DTD SVG 1.1//EN" "http://www.w3.org/Graphics/SVG/1.1/DTD/svg11.dtd"><svg t="1589297310326" class="icon" viewBox="0 0 1024 1024" version="1.1" xmlns="http://www.w3.org/2000/svg" p-id="6454" xmlns:xlink="http://www.w3.org/1999/xlink" width="200" height="200"><defs><style type="text/css"></style></defs><path d="M1008.847352 1014.429907c-12.760125 12.760125-31.900312 12.760125-44.660436 0L702.604361 752.847352c-76.560748 57.420561-165.88162 95.700935-267.962617 95.700935C192.199377 842.168224 0.797508 657.146417 0.797508 421.084112 0.797508 191.401869 192.199377 0 428.261682 0s427.464174 191.401869 427.464174 421.084112c0 108.461059-44.660436 210.542056-108.461059 280.722741l261.582555 261.582555C1027.987539 976.149533 1027.987539 1001.669782 1008.847352 1014.429907zM428.261682 63.800623C230.479751 63.800623 64.598131 223.302181 64.598131 421.084112c0 197.781931 165.88162 357.283489 363.663551 357.283489 197.781931 0 363.663551-159.501558 363.663551-357.283489C791.925234 223.302181 632.423676 63.800623 428.261682 63.800623z" p-id="6455" fill="#e6e6e6"></path></svg>