<?xml version="1.0" standalone="no"?><!DOCTYPE svg PUBLIC "-//W3C//DTD SVG 1.1//EN" "http://www.w3.org/Graphics/SVG/1.1/DTD/svg11.dtd"><svg t="1590221768962" class="icon" viewBox="0 0 1024 1024" version="1.1" xmlns="http://www.w3.org/2000/svg" p-id="12856" xmlns:xlink="http://www.w3.org/1999/xlink" width="200" height="200"><defs><style type="text/css"></style></defs><path d="M859.2 698c-57.968 0-108.08 33.216-132.64 81.6l-417.408-219.68c2.8-11.408 4.448-23.248 4.448-35.52s-1.648-24.112-4.448-35.52L737.92 263.216c26.96 37.952 71.184 62.784 121.28 62.784 82.176 0 148.8-66.624 148.8-148.8s-66.624-148.8-148.8-148.8-148.8 66.624-148.8 148.8c0 12.256 1.648 24.112 4.448 35.52L286.08 438.384c-26.96-37.952-71.184-62.784-121.28-62.784-82.176 0-148.8 66.624-148.8 148.8 0 82.176 66.624 148.8 148.8 148.8 50.096 0 94.304-24.832 121.28-62.784L711.04 834.08c-0.352 4.208-0.64 8.416-0.64 12.72 0 82.176 66.624 148.8 148.8 148.8s148.8-66.624 148.8-148.8S941.376 698 859.2 698zM760 177.2c0-54.784 44.416-99.2 99.2-99.2 54.784 0 99.2 44.416 99.2 99.2 0 0.336-0.048 0.656-0.048 0.992 0 0.336 0.048 0.656 0.048 0.992 0 54.784-44.416 99.2-99.2 99.2-54.784 0-99.2-44.416-99.2-99.2 0-0.336 0.048-0.656 0.048-0.992C760.048 177.856 760 177.536 760 177.2zM164.8 623.6c-54.784 0-99.2-44.416-99.2-99.2s44.416-99.2 99.2-99.2c54.784 0 99.2 44.416 99.2 99.2S219.584 623.6 164.8 623.6zM859.2 946c-54.784 0-99.2-44.416-99.2-99.2 0-54.784 44.416-99.2 99.2-99.2 54.784 0 99.2 44.416 99.2 99.2C958.4 901.584 913.984 946 859.2 946z" p-id="12857" fill="#dbdbdb"></path></svg>