<?xml version="1.0" standalone="no"?><!DOCTYPE svg PUBLIC "-//W3C//DTD SVG 1.1//EN" "http://www.w3.org/Graphics/SVG/1.1/DTD/svg11.dtd"><svg t="1589781557374" class="icon" viewBox="0 0 1254 1024" version="1.1" xmlns="http://www.w3.org/2000/svg" p-id="5985" xmlns:xlink="http://www.w3.org/1999/xlink" width="244.921875" height="200"><defs><style type="text/css"></style></defs><path d="M1252.779842 474.812403c0-1.196092 0-1.196092-1.196092-2.392185 0-1.196092-1.196092-1.196092-1.196092-2.392185s-1.196092-1.196092-1.196092-2.392184l-1.196093-1.196093c0-1.196092-1.196092-1.196092-1.196092-2.392184l-30.119779-26.495257a265.170041 265.170041 0 0 1-83.110293-131.316438l-4.820615-13.265751A388.331304 388.331304 0 0 0 866.152064 30.373496l-98.768229-28.996178a23.341923 23.341923 0 0 0-21.747133 3.624523 25.154184 25.154184 0 0 0-9.641229 19.282457v743.063288a123.777432 123.777432 0 0 0-39.869744-20.47855 234.869036 234.869036 0 0 0-138.529236-2.392185c-104.821181 27.691349-169.845108 109.60555-150.598896 184.306952a124.031148 124.031148 0 0 0 84.342631 83.110293 225.409033 225.409033 0 0 0 71.076879 12.033414 268.21464 268.21464 0 0 0 67.452357-9.641229c103.588843-27.691349 169.845108-108.409458 150.598896-183.11086a20.333569 20.333569 0 0 0 3.624522-12.033413V242.11808l52.990514 20.47855a271.114257 271.114257 0 0 1 147.22809 128.851763l3.624522 7.249044a205.292935 205.292935 0 0 0 181.914767 109.60555h66.256266c1.196092 0 1.196092 0 2.392184-1.196092 1.196092 0 1.196092 0 2.392185-1.196092 1.196092 0 1.196092-1.196092 2.392184-1.196093s1.196092-1.196092 2.392185-1.196092l1.196092-1.196092c1.196092 0 1.196092-1.196092 2.392185-1.196092-1.196092-1.196092-1.196092-1.196092 0-2.392185 0-1.196092 1.196092-1.196092 1.196092-2.392185s1.196092-1.196092 1.196093-2.392184 1.196092-1.196092 1.196092-2.392185 0-1.196092 1.196092-2.392185v-12.033413c0.108736-1.304828 0.108736-1.304828-1.268583-2.319694zM618.089767 970.936996a187.786493 187.786493 0 0 1-109.60555-1.196093 77.746 77.746 0 0 1-54.367832-49.402237c-13.265751-48.169899 39.869744-106.017273 115.658502-125.299731a218.739912 218.739912 0 0 1 55.418944-7.249044 159.805182 159.805182 0 0 1 54.367832 8.445137 77.746 77.746 0 0 1 54.367833 49.402237c13.04828 47.010052-39.942234 104.821181-115.839729 125.299731z m413.195526-593.877956l-3.624522-7.249044a311.708906 311.708906 0 0 0-173.46963-151.794988l-69.880787-27.691349V57.992355l67.452357 19.282457a339.472745 339.472745 0 0 1 230.084666 230.084667l4.820615 13.265751a300.001699 300.001699 0 0 0 80.718108 137.333145A149.257822 149.257822 0 0 1 1031.285293 376.950304z" p-id="5986"></path><path d="M145.887021 159.007787h447.084808a24.103072 24.103072 0 1 0 0-48.169899H145.887021a24.103072 24.103072 0 1 0 0 48.169899z" p-id="5987"></path><path d="M60.348298 110.837888h-36.245222a24.103072 24.103072 0 1 0 0 48.169899h36.245222a24.103072 24.103072 0 1 0 0-48.169899z" p-id="5988"></path><path d="M145.887021 303.553731h386.700269a24.103072 24.103072 0 0 0 0-48.1699H145.887021a24.103072 24.103072 0 0 0 0 48.1699z" p-id="5989"></path><path d="M60.348298 255.383831h-36.245222a24.103072 24.103072 0 0 0 0 48.1699h36.245222a24.103072 24.103072 0 0 0 0-48.1699z" p-id="5990"></path><path d="M145.887021 448.099674h483.040068a24.103072 24.103072 0 1 0 0-48.169899H145.887021a24.103072 24.103072 0 0 0 0 48.169899z" p-id="5991"></path><path d="M60.348298 399.929775h-36.245222a24.103072 24.103072 0 0 0 0 48.169899h36.245222a24.103072 24.103072 0 0 0 0-48.169899z" p-id="5992"></path><path d="M496.414559 568.615036a24.175563 24.175563 0 0 0-24.103073-24.103072H145.887021a24.103072 24.103072 0 1 0 0 48.169899h326.46071a24.175563 24.175563 0 0 0 24.066828-24.066827z" p-id="5993"></path><path d="M60.348298 544.511964h-36.245222a24.103072 24.103072 0 1 0 0 48.169899h36.245222a24.103072 24.103072 0 1 0 0-48.169899z" p-id="5994"></path></svg>